<svg xmlns="http://www.w3.org/2000/svg" viewBox="0 0 24.51 31.03"><defs><style>.cls-1{fill:#fff;}</style></defs><title>dietist</title><g id="Laag_2" data-name="Laag 2"><g id="Laag_1-2" data-name="Laag 1"><g id="CnDnD7.tif"><path class="cls-1" d="M15.57,31H14.43a9.26,9.26,0,0,1-1.81-.47.82.82,0,0,0-.73,0,5.49,5.49,0,0,1-1.78.41,6.25,6.25,0,0,1-4.35-1.42,11.79,11.79,0,0,1-3-3.53A20.07,20.07,0,0,1,.44,20.1,14.47,14.47,0,0,1,.11,15a8.14,8.14,0,0,1,2.54-5A7.06,7.06,0,0,1,6.24,8.19a8.55,8.55,0,0,1,5,.66c.17.07.24.05.31-.12.37-1,.76-1.89,1.18-2.81A33.25,33.25,0,0,1,14.9,1.83.8.8,0,0,1,16,1.5l2,.94c.34.16.38.4.11.65a2.52,2.52,0,0,1-.25.21c-.61.48-1.21,1-1.77,1.5a19.72,19.72,0,0,0-2.74,3.44A2.65,2.65,0,0,0,13,9l.29-.11A9.82,9.82,0,0,1,17.43,8a6.72,6.72,0,0,1,5.69,3.2,9,9,0,0,1,1.33,4.16,14.38,14.38,0,0,1-.19,3.82,21,21,0,0,1-1.89,5.92A13.78,13.78,0,0,1,19.63,29a7.27,7.27,0,0,1-3.31,1.88A3.88,3.88,0,0,0,15.57,31Z"/><path class="cls-1" d="M11.17,6.79a6.08,6.08,0,0,1-3.7-1.32A5,5,0,0,1,6.05,3.56,6.72,6.72,0,0,1,5.51.83.76.76,0,0,1,6.34,0a6.08,6.08,0,0,1,4.21,1.52,5.72,5.72,0,0,1,1.7,3.54,6.33,6.33,0,0,1,0,.87.76.76,0,0,1-.87.86Z"/></g></g></g></svg>