<svg xmlns="http://www.w3.org/2000/svg" viewBox="0 0 25.33 32.21"><defs><style>.cls-1{fill:#fff;}</style></defs><title>ergotherapie</title><g id="Laag_2" data-name="Laag 2"><g id="Laag_1-2" data-name="Laag 1"><g id="S13GmD.tif"><path class="cls-1" d="M0,19.33v-.86C1,17,1.88,16.9,3.19,18.2c1,1,2,2,3,3a1.77,1.77,0,0,0,.18-1.17q0-6.48,0-13c0-1.15,0-2.29,0-3.44a1.4,1.4,0,0,1,1.37-1.5A1.48,1.48,0,0,1,9.47,3.46a5.4,5.4,0,0,1,.06,1.07v6.76c0,.29,0,.58,0,.86.06.64.34,1.16,1,1.13s1.05-.49,1.05-1.22c0-3.26,0-6.51,0-9.77A2.4,2.4,0,0,1,12.67,0h1.07a2.31,2.31,0,0,1,1.08,2.18c0,3.07,0,6.15,0,9.22,0,.29,0,.58,0,.86a1,1,0,0,0,.91,1,1,1,0,0,0,1.15-.9,5.22,5.22,0,0,0,0-1V4.12c0-1.32.57-2,1.56-2s1.55.76,1.55,2c0,2.4,0,4.79,0,7.19,0,.25,0,.5,0,.75,0,.63.31,1.17,1,1.17a1,1,0,0,0,1.09-1.18v-.75c0-1.72,0-3.43,0-5.15,0-1.23.58-2,1.49-2s1.66.74,1.68,2.05V18.49c0,.23.11.5-.21.75a27.45,27.45,0,0,0-1.94-1.95c-3.19-2.67-7.64-2.73-10.4-.19-3.46,3.17-2.71,8.57,1.44,10.31a4.85,4.85,0,0,0,6.85-5,3.3,3.3,0,0,0-3.25-3,3,3,0,0,0-3,2.72c-.1.73,0,1.46.87,1.57s1.16-.42,1.22-1.18c0-.54.22-1.06.86-1A1.21,1.21,0,0,1,19,22.66a2.76,2.76,0,0,1-2.66,3.1,3.66,3.66,0,0,1-3.44-4.71,5.29,5.29,0,0,1,6.27-3.56,6.7,6.7,0,0,1,5.4,6,7.59,7.59,0,0,1-4.36,7.79A9.8,9.8,0,0,1,8.43,28.58c-.56-.65-1.12-1.3-1.66-2C4.71,24,2.19,21.82,0,19.33Z"/></g></g></g></svg>