<svg id="Laag_1" data-name="Laag 1" xmlns="http://www.w3.org/2000/svg" viewBox="0 0 21.53 28.26"><defs><style>.cls-1{fill:#fff;}</style></defs><title>filter-alle</title><g id="MWsUID.tif"><path class="cls-1" d="M-108.67,339.1v-0.87a0.42,0.42,0,0,0,0-.2,10.16,10.16,0,0,1,1.56-4.82,10.62,10.62,0,0,1,8.39-5.12,10.16,10.16,0,0,1,4.62.67,10.77,10.77,0,0,1,6.87,11.17,10.41,10.41,0,0,1-2.16,5.44c-2.4,3.1-4.82,6.18-7.23,9.28-0.43.55-.88,1.09-1.28,1.67h0l-0.1-.15q-4.14-5.3-8.28-10.6a10.85,10.85,0,0,1-2.23-5C-108.59,340.06-108.6,339.57-108.67,339.1Zm10.77,7.16a7.46,7.46,0,0,0,7.46-7.41,7.46,7.46,0,0,0-7.46-7.48,7.44,7.44,0,0,0-7.45,7.25A7.44,7.44,0,0,0-97.89,346.26Z" transform="translate(108.67 -328.05)"/><path class="cls-1" d="M-92.09,338.84a5.82,5.82,0,0,1-5.58,5.77,5.81,5.81,0,0,1-6-5.91A5.81,5.81,0,0,1-97.94,333,5.81,5.81,0,0,1-92.09,338.84ZM-94,337.76a0.24,0.24,0,0,0-.1-0.14c-0.3-.3-0.61-0.6-0.9-0.91-0.11-.11-0.17-0.12-0.28,0L-98.59,340c-0.1.1-.16,0.1-0.26,0l-1.65-1.65c-0.09-.09-0.14-0.11-0.24,0q-0.46.48-.94,0.93c-0.1.1-.1,0.15,0,0.24l2.83,2.84c0.1,0.1.15,0.08,0.24,0l4.47-4.48Z" transform="translate(108.67 -328.05)"/></g></svg>