<svg id="Laag_1" data-name="Laag 1" xmlns="http://www.w3.org/2000/svg" viewBox="0 0 35.68 40.96"><defs><style>.cls-1{fill:#fff;}</style></defs><title>filter-zorguitleen</title><g id="Ry757B.tif"><path class="cls-1" d="M1034.54,676.17a57.56,57.56,0,0,1,7.41,6.82c1,1,.75,2.39-0.45,3.64q-6.28,6.56-12.59,13.1c-2.78,2.89-5.51,5.82-8.36,8.63-0.89.88-.7,2.23-1.8,3s-2,1.12-2.86.27a1.7,1.7,0,0,1,.3-2.72,29,29,0,0,0,5.76-5.07c2-2,3.88-4.11,5.89-6.08,0.77-.76.64-1.15-0.08-1.8-1.62-1.46-3.17-3-4.75-4.52-0.55-.53-1.1-1.11-0.39-1.85s1.32-.28,1.88.26c1.67,1.62,3.34,3.22,5,4.87,0.48,0.49.78,0.56,1.29,0q3.25-3.5,6.59-6.92a0.81,0.81,0,0,0,0-1.42c-1.64-1.51-3.21-3.1-4.83-4.63-2.28-2.17-2.17-3.87.39-5.61h1.64Z" transform="translate(-1006.89 -676.17)"/><path class="cls-1" d="M1023.37,682.49a4.31,4.31,0,0,1-.44,1.71c-3.4,9.26-6.77,18.53-10.22,27.76-0.49,1.31.22,2.72-.63,4a2.06,2.06,0,0,1-1.67,1.22,1.7,1.7,0,0,1-1.6-.87c-0.47-.84,0-3.18.93-3.52a1.23,1.23,0,0,0,.77-1c1.53-4.13,3-8.28,4.6-12.4,0.34-.9.07-1.14-0.73-1.42-2.1-.73-4.17-1.56-6.26-2.33-0.73-.27-1.48-0.56-1.15-1.5s1.17-.76,1.95-0.47c2.09,0.78,4.2,1.49,6.27,2.31,0.78,0.31,1.09.15,1.36-.63q1.55-4.44,3.24-8.83a0.8,0.8,0,0,0-.59-1.27c-2.41-.83-4.81-1.67-7.18-2.59a2.9,2.9,0,0,1,.25-5.53,2.67,2.67,0,0,1,1.73.16c2.57,0.91,5.13,1.85,7.69,2.8A2.41,2.41,0,0,1,1023.37,682.49Z" transform="translate(-1006.89 -676.17)"/></g></svg>