<svg id="Laag_1" data-name="Laag 1" xmlns="http://www.w3.org/2000/svg" viewBox="0 0 29.67 32.84"><defs><style>.cls-1{fill:#fff;}</style></defs><title>filter-oefentherapie</title><g id="gvPC41.tif"><path class="cls-1" d="M334.17,680.23h8.29a3,3,0,0,1,.11,1.58,3.19,3.19,0,0,0,2,3.79c1.62,0.74,3.26,1.42,4.91,2.08a5.21,5.21,0,0,1,3.45,4.82c0.55,6.57-.29,13.08-0.64,19.6a0.79,0.79,0,0,1-.9.85h-3.06a0.53,0.53,0,0,1-.67-0.38c-0.37-1.54-.88-3-0.07-4.63a27.09,27.09,0,0,0,2.58-10.74c0-.55.14-1.21-0.64-1.26s-0.75.62-.78,1.18a26.12,26.12,0,0,1-2.1,9.41c-0.84,1.84-1.37,3.67-.54,5.66,0.26,0.62,0,.79-0.65.78-1.71,0-3.42-.08-5.13,0-1.06.05-1.41-.19-1.39-1.34,0.06-6.87,0-13.75,0-20.62,0-.62.23-1.55-0.7-1.55s-0.66,1-.66,1.54c0,6.95,0,13.89,0,20.84,0,0.93-.27,1.16-1.16,1.13-1.74-.07-3.49-0.07-5.24,0-0.88,0-1-.3-0.73-1a6,6,0,0,0-.37-4.95,23.17,23.17,0,0,1-1.81-5.69,35.43,35.43,0,0,1-.51-4.55,0.73,0.73,0,1,0-1.43.07c0,0.18,0,.36,0,0.54a29.61,29.61,0,0,0,2.77,11.14c0.7,1.52.12,2.93-.45,4.18-0.29.63-1.61,0.14-2.46,0.22-0.32,0-.65,0-1,0a0.88,0.88,0,0,1-1-1c-0.08-1.38-.21-2.76-0.29-4.14-0.27-5.08-.81-10.15-0.35-15.25a5.32,5.32,0,0,1,3.57-5q2.43-.95,4.81-2a3.14,3.14,0,0,0,2-3.78A3,3,0,0,1,334.17,680.23Z" transform="translate(-323.48 -680.23)"/></g></svg>