<svg id="Laag_1" data-name="Laag 1" xmlns="http://www.w3.org/2000/svg" viewBox="0 0 35.05 35.24"><defs><style>.cls-1{fill:#fff;}</style></defs><title>filter-revalidatie</title><g id="p1xZtx.tif"><path class="cls-1" d="M870.06,679a2.17,2.17,0,0,1,.54,1.16c0.32,2.14.71,4.26,1,6.4a0.72,0.72,0,0,0,.88.75c5.3,0,10.6,0,15.9,0a3.24,3.24,0,0,1,.7,0,0.82,0.82,0,0,1,.73.87,0.73,0.73,0,0,1-.75.82c-0.59,0-.63.29-0.61,0.73a6.93,6.93,0,0,1,0,.86c-0.14,1.87-.07,3.68,1.36,5.14a2.61,2.61,0,0,1,.47.89c0.4,1.05.77,2,2.06,2.43,1,0.33,1.35,1.44,1.51,2.49,0.3,1.88.61,3.75,0.89,5.63,0.06,0.41.15,0.57,0.61,0.48a3.18,3.18,0,0,1,3.56,1.51,0.7,0.7,0,0,0,.7.36c0.47,0,.94,0,1.41,0a0.78,0.78,0,0,1,.85.82,0.74,0.74,0,0,1-.78.88,1.9,1.9,0,0,0-2.25,1.42,3.12,3.12,0,0,1-4.13,1.27,3.18,3.18,0,0,1-1.79-4,4.8,4.8,0,0,0,.1-2.59q-0.45-2.82-.91-5.63a1.58,1.58,0,0,0-.7-1.23,12.31,12.31,0,0,1-.22,4,12.48,12.48,0,0,1-10.52,9.58A12.31,12.31,0,0,1,867,703.67a11.85,11.85,0,0,1,3.33-10.26,1.45,1.45,0,0,0,.43-1.44c-0.67-3.9-1.28-7.81-1.92-11.72a1.08,1.08,0,0,1,.61-1.22h0.63Zm9.1,32.75a9.85,9.85,0,0,0,0-19.71A9.85,9.85,0,1,0,879.16,711.78Zm-6.68-20.2,0.72-.42a12.35,12.35,0,0,1,13,.68c0.39,0.27.54,0.22,0.53-.26s0-1.15,0-1.72-0.14-.81-0.77-0.8c-2.48,0-5,0-7.43,0-2,0-3.91,0-5.86,0-0.51,0-.64.16-0.54,0.63S872.35,690.9,872.47,691.58Z" transform="translate(-866.85 -679.03)"/><path class="cls-1" d="M879.15,693.89a8.06,8.06,0,1,1-8,8.13A8,8,0,0,1,879.15,693.89Z" transform="translate(-866.85 -679.03)"/></g></svg>