<svg id="Laag_1" data-name="Laag 1" xmlns="http://www.w3.org/2000/svg" viewBox="0 0 29.21 19.11"><defs><style>.cls-1{fill:#fff;}</style></defs><title>filter-fysiotherapeut</title><g id="uBah4r.tif"><path class="cls-1" d="M178.93,695.91a1.75,1.75,0,0,1,.39-0.65,1.43,1.43,0,0,1,1-.27,1.22,1.22,0,0,0,.77,0,1.13,1.13,0,0,0,.06-0.79c0-1.13,0-2.26,0-3.39a1.19,1.19,0,0,1,1.38-1.39h0.66c0.14,0,.22,0,0.2.19a1.35,1.35,0,0,0,0,.14q0,7,0,13.92c0,0.27-.06.37-0.34,0.34s-0.46,0-.68,0a1.12,1.12,0,0,1-1.21-1.18c0-.41,0-0.82,0-1.23,0-1,0-2,0-2.94,0-.21-0.06-0.28-0.27-0.27a8.07,8.07,0,0,1-.83,0,1.11,1.11,0,0,1-1.1-.8,0.42,0.42,0,0,0-.06-0.09v-1.54Z" transform="translate(-178.93 -687.09)"/><path class="cls-1" d="M184.56,696.66q0-4.12,0-8.24a1.06,1.06,0,0,1,.82-1.23,10.91,10.91,0,0,1,2.84,0,1,1,0,0,1,.81,1.12q0,3.15,0,6.3c0,0.38,0,.38.39,0.38h8.27c0.28,0,.37-0.07.36-0.36,0-2.07,0-4.15,0-6.22a1.13,1.13,0,0,1,1.29-1.3h2a1.09,1.09,0,0,1,1.15,1.09c0,0.09,0,.17,0,0.26q0,8.19,0,16.37a2.58,2.58,0,0,1,0,.51,1,1,0,0,1-1,.83q-1.17,0-2.34,0A1.08,1.08,0,0,1,198,705q0-3.15,0-6.3c0-.38,0-0.38-0.39-0.38h-8.3c-0.25,0-.34.06-0.34,0.33,0,2.08,0,4.16,0,6.25a1.13,1.13,0,0,1-1.27,1.29h-1.91a1.13,1.13,0,0,1-1.29-1.3Q184.56,700.78,184.56,696.66Z" transform="translate(-178.93 -687.09)"/><path class="cls-1" d="M203.65,696.65c0-2.32,0-4.64,0-7,0-.26.07-0.35,0.33-0.33s0.44,0,.66,0a1.14,1.14,0,0,1,1.25,1.26c0,1.31,0,2.62,0,3.94,0,0.48,0,.43.42,0.43H207a1.09,1.09,0,0,1,1.1,1.05,11.6,11.6,0,0,1,0,1.23,1.07,1.07,0,0,1-1,1,6.75,6.75,0,0,1-1,0,0.23,0.23,0,0,0-.29.29c0,1.35,0,2.7,0,4.05a1.13,1.13,0,0,1-.89,1.25,6.71,6.71,0,0,1-1.22,0c-0.17,0-.12-0.14-0.12-0.23,0-.59,0-1.18,0-1.77Q203.65,699.3,203.65,696.65Z" transform="translate(-178.93 -687.09)"/></g></svg>