<svg xmlns="http://www.w3.org/2000/svg" viewBox="0 0 41.94 29.09"><defs><style>.cls-1{fill:#fff;}</style></defs><title>logopedist</title><g id="Laag_2" data-name="Laag 2"><g id="Laag_1-2" data-name="Laag 1"><g id="QRexix.tif"><path class="cls-1" d="M41.94,12.39c-.51,2.37-1.44,4.6-3.47,6a4.1,4.1,0,0,0-1.85,4.3c.12,1.23,0,1.24-1.09.61a.91.91,0,0,1-.17-.09c-1.81-1.39-3.81-1.56-6.08-1.43a12.86,12.86,0,0,1-11.41-4.93A8.74,8.74,0,0,1,18.5,5.09c5.31-5.66,15.74-5.59,21,.13a10.91,10.91,0,0,1,2.48,5.12Z"/><path class="cls-1" d="M20.19.51c-.59.41-1.21.8-1.78,1.25-7.24,5.62-6.6,15.31,1.33,20.11a14.69,14.69,0,0,0,2.67,1.31c.92.32,1.85.6,2.93.94A17,17,0,0,1,20,26a18.86,18.86,0,0,1-7.22,0,1.78,1.78,0,0,0-1.32.27c-1.61.91-3.23,1.8-5,2.78,0-1.61,0-3.06,0-4.5a1.41,1.41,0,0,0-.72-1.36,12.29,12.29,0,0,1-5.64-8.3A11,11,0,0,1,4.05,4.51C8.62.39,14.09-.62,20,.33,20.07.34,20.1.41,20.19.51Z"/></g></g></g></svg>