<svg xmlns="http://www.w3.org/2000/svg" viewBox="0 0 20.57 20.64"><defs><style>.cls-1{fill:#fff;}</style></defs><title>ziekenhuizen</title><g id="Laag_2" data-name="Laag 2"><g id="Laag_1-2" data-name="Laag 1"><g id="yNcTw9.tif"><path class="cls-1" d="M4.09,6.88c.84,0,1.68,0,2.52,0,.22,0,.28-.07.28-.28,0-1.61,0-3.22,0-4.82A1.65,1.65,0,0,1,7.82.17,1.62,1.62,0,0,1,8.6,0H12a1.63,1.63,0,0,1,1.72,1.72c0,1.62,0,3.25,0,4.87,0,.23,0,.3.28.3,1.6,0,3.2,0,4.8,0a1.66,1.66,0,0,1,1.81,1.79V12a1.66,1.66,0,0,1-1.78,1.78H13.94c-.2,0-.26.05-.26.26,0,1.59,0,3.19,0,4.79a1.71,1.71,0,0,1-1.83,1.83c-1.06,0-2.11,0-3.16,0a1.68,1.68,0,0,1-1.82-1.82c0-1.58,0-3.16,0-4.74,0-.25,0-.33-.31-.33-1.58,0-3.16,0-4.75,0A1.67,1.67,0,0,1,0,11.93C0,10.85,0,9.77,0,8.7A1.71,1.71,0,0,1,1.82,6.87C2.57,6.91,3.33,6.88,4.09,6.88Z"/></g></g></g></svg>