<svg xmlns="http://www.w3.org/2000/svg" viewBox="0 0 35.68 40.96"><defs><style>.cls-1{fill:#fff;}</style></defs><title>zorguitleen</title><g id="Laag_2" data-name="Laag 2"><g id="Laag_1-2" data-name="Laag 1"><g id="Ry757B.tif"><path class="cls-1" d="M27.65,0a57.68,57.68,0,0,1,7.41,6.82c1,1,.75,2.39-.45,3.64Q28.33,17,22,23.55c-2.78,2.89-5.51,5.83-8.36,8.63-.9.88-.71,2.23-1.81,3s-2,1.12-2.86.28a1.71,1.71,0,0,1,.3-2.72,29.06,29.06,0,0,0,5.76-5.07c2-2,3.87-4.11,5.89-6.08.77-.75.64-1.15-.08-1.8-1.62-1.47-3.17-3-4.74-4.53-.55-.52-1.1-1.1-.39-1.85s1.31-.27,1.87.27c1.67,1.62,3.35,3.22,5,4.87.49.49.79.56,1.3,0q3.26-3.51,6.59-6.92c.54-.55.56-.88,0-1.42-1.64-1.51-3.21-3.09-4.83-4.63C23.34,3.43,23.45,1.74,26,0Z"/><path class="cls-1" d="M16.48,6.32A4.37,4.37,0,0,1,16,8c-3.4,9.26-6.77,18.53-10.22,27.76-.49,1.31.22,2.72-.63,4C4.76,40.38,4.34,41,3.52,41a1.69,1.69,0,0,1-1.59-.86c-.47-.85,0-3.19.93-3.52.56-.21.62-.58.76-1,1.53-4.13,3-8.28,4.6-12.4.34-.9.07-1.14-.73-1.42-2.1-.72-4.17-1.56-6.26-2.32C.5,19.2-.26,18.9.08,18S1.25,17.21,2,17.5c2.09.77,4.2,1.49,6.27,2.31.78.31,1.09.15,1.36-.64q1.56-4.43,3.24-8.83c.29-.73.12-1-.59-1.26-2.4-.83-4.8-1.68-7.18-2.59a2.77,2.77,0,0,1-1.9-3A2.76,2.76,0,0,1,5.38,1a2.68,2.68,0,0,1,1.73.16C9.68,2,12.24,3,14.8,3.93A2.41,2.41,0,0,1,16.48,6.32Z"/></g></g></g></svg>