<svg xmlns="http://www.w3.org/2000/svg" viewBox="0 0 21.53 28.26"><defs><style>.cls-1{isolation:isolate;}.cls-2{opacity:0;mix-blend-mode:screen;}.cls-3{fill:#fff;}</style></defs><title>all</title><g class="cls-1"><g id="Laag_2" data-name="Laag 2"><g id="Laag_1-2" data-name="Laag 1"><g id="MWsUID.tif"><g class="cls-2"><path class="cls-3" d="M0,11.05v-.87A.45.45,0,0,0,0,10,10.07,10.07,0,0,1,1.6,5.16,10.61,10.61,0,0,1,10,0a10.27,10.27,0,0,1,4.62.67,10.8,10.8,0,0,1,6.87,11.17,10.4,10.4,0,0,1-2.17,5.44c-2.4,3.1-4.82,6.18-7.23,9.27-.43.56-.88,1.1-1.28,1.67h0l-.1-.15L2.38,17.5a10.69,10.69,0,0,1-2.23-5C.07,12,.06,11.53,0,11.05Zm10.77,7.16a7.45,7.45,0,1,0-7.44-7.64A7.45,7.45,0,0,0,10.77,18.21Z"/><path class="cls-3" d="M16.57,10.79A5.8,5.8,0,1,1,10.73,5,5.82,5.82,0,0,1,16.57,10.79ZM14.65,9.71c0-.07-.06-.1-.1-.14-.3-.3-.61-.6-.9-.91-.11-.11-.17-.11-.29,0L10.08,12c-.1.1-.16.11-.26,0L8.17,10.3c-.09-.09-.14-.11-.24,0-.3.32-.61.63-.93.94-.1.09-.1.15,0,.24,1,.94,1.89,1.89,2.83,2.84.1.1.15.08.24,0l4.47-4.47Z"/></g><path class="cls-3" d="M0,11.05v-.87A.45.45,0,0,0,0,10,10.07,10.07,0,0,1,1.6,5.16,10.61,10.61,0,0,1,10,0a10.27,10.27,0,0,1,4.62.67,10.8,10.8,0,0,1,6.87,11.17,10.4,10.4,0,0,1-2.17,5.44c-2.4,3.1-4.82,6.18-7.23,9.27-.43.56-.88,1.1-1.28,1.67h0l-.1-.15L2.38,17.5a10.69,10.69,0,0,1-2.23-5C.07,12,.06,11.53,0,11.05Zm10.77,7.16a7.45,7.45,0,1,0-7.44-7.64A7.45,7.45,0,0,0,10.77,18.21Z"/><path class="cls-3" d="M16.57,10.79A5.8,5.8,0,1,1,10.73,5,5.82,5.82,0,0,1,16.57,10.79ZM14.65,9.71c0-.07-.06-.1-.1-.14-.3-.3-.61-.6-.9-.91-.11-.11-.17-.11-.29,0L10.08,12c-.1.1-.16.11-.26,0L8.17,10.3c-.09-.09-.14-.11-.24,0-.3.32-.61.63-.93.94-.1.09-.1.15,0,.24,1,.94,1.89,1.89,2.83,2.84.1.1.15.08.24,0l4.47-4.47Z"/></g></g></g></g></svg>