<svg xmlns="http://www.w3.org/2000/svg" viewBox="0 0 48.19 53.28"><defs><style>.cls-1{fill:#484759;}.cls-2{fill:#fff;}</style></defs><title>righthere</title><g id="Laag_2" data-name="Laag 2"><g id="Laag_1-2" data-name="Laag 1"><path class="cls-1" d="M24.1,53.28l-5.8-5.8a24.07,24.07,0,1,1,11.6,0Z"/><g id="Z53yl2.tif"><path class="cls-2" d="M24.22,34.79H14.34A1.38,1.38,0,0,1,13,32.56a13.14,13.14,0,0,1,10.79-7.14A11.12,11.12,0,0,1,31,27.63a13.45,13.45,0,0,1,4.47,5,1.38,1.38,0,0,1-1.29,2.19Z"/><path class="cls-2" d="M30.52,16.33a6.29,6.29,0,1,1-6.34-6.26A6.34,6.34,0,0,1,30.52,16.33Z"/></g></g></g></svg>