<svg xmlns="http://www.w3.org/2000/svg" viewBox="0 0 15.83 16.4"><defs><style>.cls-1{fill:#26394b;}</style></defs><title>search_icon</title><g id="Laag_2" data-name="Laag 2"><g id="Laag_1-2" data-name="Laag 1"><g id="_4I1cYg.tif" data-name="4I1cYg.tif"><path class="cls-1" d="M7.48,0C8.1.21,8.74.31,9.34.58A6.6,6.6,0,0,1,12,10.43c-.29.41-.2.59.09.89,1.14,1.15,2.25,2.33,3.37,3.5a.87.87,0,0,1,.08,1.34.86.86,0,0,1-1.3-.14c-1.15-1.19-2.31-2.37-3.44-3.58a.58.58,0,0,0-.86-.13A6.6,6.6,0,1,1,5.39.12c.12,0,.26,0,.34-.12ZM6.62,11.49a4.88,4.88,0,1,0-4.89-4.9A4.9,4.9,0,0,0,6.62,11.49Z"/></g></g></g></svg>