<svg xmlns="http://www.w3.org/2000/svg" xmlns:xlink="http://www.w3.org/1999/xlink" viewBox="0 0 36.71 45.38"><defs><style>.cls-1{fill:none;}.cls-2{clip-path:url(#clip-path);}.cls-3{clip-path:url(#clip-path-2);}.cls-4{fill:#b6384d;}.cls-5{clip-path:url(#clip-path-3);}</style><clipPath id="clip-path" transform="translate(-111.58 -54.69)"><path class="cls-1" d="M134.17,97.23h-1.45a11.45,11.45,0,0,1-2.3-.6,1.06,1.06,0,0,0-.92,0,6.88,6.88,0,0,1-2.31.53,7.83,7.83,0,0,1-5.5-1.81,15.21,15.21,0,0,1-3.81-4.52A25.88,25.88,0,0,1,115,83.24a18.69,18.69,0,0,1-.41-6.54,10.49,10.49,0,0,1,3.22-6.41A8.76,8.76,0,0,1,122.3,68a10.53,10.53,0,0,1,6.33.84c.22.09.31.07.41-.16.46-1.17,1-2.41,1.48-3.59a42.56,42.56,0,0,1,2.73-5.23,1,1,0,0,1,1.45-.43l2.55,1.17c.43.21.48.52.14.84l-.31.27a29.24,29.24,0,0,0-2.25,1.92A24.46,24.46,0,0,0,131.38,68a3.43,3.43,0,0,0-.51.94l.36-.14a12.31,12.31,0,0,1,5.29-1,8.49,8.49,0,0,1,7.19,4.09,11.52,11.52,0,0,1,1.68,5.31,18.69,18.69,0,0,1-.23,4.9,26.91,26.91,0,0,1-2.4,7.58,17.43,17.43,0,0,1-3.45,4.91,9.24,9.24,0,0,1-4.2,2.43A4.25,4.25,0,0,0,134.17,97.23Z"/></clipPath><clipPath id="clip-path-2" transform="translate(-111.58 -54.69)"><rect class="cls-1" width="378.54" height="612.93"/></clipPath><clipPath id="clip-path-3" transform="translate(-111.58 -54.69)"><path class="cls-1" d="M128.56,66.22A7.72,7.72,0,0,1,124,64.53a6.4,6.4,0,0,1-1.79-2.44,8.78,8.78,0,0,1-.69-3.5,1,1,0,0,1,.29-.78.93.93,0,0,1,.77-.28,7.52,7.52,0,0,1,5.32,1.95A7.29,7.29,0,0,1,130,64a7.49,7.49,0,0,1,0,1.16,1,1,0,0,1-.29.86,1,1,0,0,1-.86.25Z"/></clipPath></defs><title>dietist_kleur_1</title><g id="Laag_2" data-name="Laag 2"><g id="Laag_1-2" data-name="Laag 1"><g class="cls-2"><g class="cls-3"><rect class="cls-4" y="1.77" width="36.71" height="43.6"/></g></g><g class="cls-5"><g class="cls-3"><rect class="cls-4" x="7.05" width="14.23" height="14.44"/></g></g></g></g></svg>