<svg xmlns="http://www.w3.org/2000/svg" xmlns:xlink="http://www.w3.org/1999/xlink" viewBox="0 0 36.89 45.97"><defs><style>.cls-1{fill:none;}.cls-2{clip-path:url(#clip-path);}.cls-3{clip-path:url(#clip-path-2);}.cls-4{fill:#657d6b;}</style><clipPath id="clip-path" transform="translate(-111.8 -120.88)"><path class="cls-1" d="M114.64,147.9v-1.07c1.24-1.84,2.32-2,3.94-.34l3.71,3.75a2.3,2.3,0,0,0,.22-1.46V128.21a1.76,1.76,0,0,1,.45-1.3,1.67,1.67,0,0,1,1.24-.57,1.81,1.81,0,0,1,1.45.37,1.84,1.84,0,0,1,.69,1.34,6.66,6.66,0,0,1,.07,1.34v9.53c.08.8.42,1.45,1.24,1.41a1.34,1.34,0,0,0,1.3-1.52V126.59a3,3,0,0,1,1.34-2.87h1.32a2.92,2.92,0,0,1,1.34,2.73v12.61a1.29,1.29,0,0,0,2.07,1,1.27,1.27,0,0,0,.47-.88,6.53,6.53,0,0,0,0-1.25v-9.06c0-1.65.71-2.5,1.93-2.5s1.91.95,1.91,2.5v9.94c0,.79.39,1.46,1.24,1.46a1.24,1.24,0,0,0,1-.39,1.26,1.26,0,0,0,.31-1.08v-7.39c0-1.53.71-2.5,1.84-2.5s2.05.93,2.07,2.57v15.37c0,.29.14.63-.26.94-.76-.85-1.56-1.67-2.39-2.44-3.94-3.34-9.44-3.41-12.85-.24-4.28,4-3.35,10.72,1.78,12.9a5.92,5.92,0,0,0,6-.61,6.09,6.09,0,0,0,2.41-5.64,4.11,4.11,0,0,0-4-3.76,3.73,3.73,0,0,0-3.7,3.41c-.12.91,0,1.82,1.07,2s1.44-.53,1.51-1.48c0-.67.27-1.32,1.06-1.25a1.49,1.49,0,0,1,1.11.37,1.53,1.53,0,0,1,.51,1.06,3.49,3.49,0,0,1-.79,2.67,3.41,3.41,0,0,1-2.49,1.21,4.5,4.5,0,0,1-3.57-1.88,4.6,4.6,0,0,1-.68-4,6.52,6.52,0,0,1,7.74-4.45,8.35,8.35,0,0,1,6.67,7.51,9.51,9.51,0,0,1-5.38,9.74,12,12,0,0,1-14.56-3.38c-.69-.81-1.38-1.62-2-2.5C120.46,153.74,117.35,151,114.64,147.9Z"/></clipPath><clipPath id="clip-path-2" transform="translate(-111.8 -120.88)"><rect class="cls-1" width="378.54" height="612.93"/></clipPath></defs><title>Middel 28</title><g id="Laag_2" data-name="Laag 2"><g id="Laag_1-2" data-name="Laag 1"><g class="cls-2"><g class="cls-3"><rect class="cls-4" width="36.89" height="45.97"/></g></g></g></g></svg>