<svg xmlns="http://www.w3.org/2000/svg" xmlns:xlink="http://www.w3.org/1999/xlink" viewBox="0 0 43.7 29.51"><defs><style>.cls-1{fill:none;}.cls-2{clip-path:url(#clip-path);}.cls-3{clip-path:url(#clip-path-2);}.cls-4{fill:#6f2455;}.cls-5{clip-path:url(#clip-path-3);}.cls-6{clip-path:url(#clip-path-5);}</style><clipPath id="clip-path" transform="translate(-108.4 -199.77)"><path class="cls-1" d="M111.24,213.28a2.33,2.33,0,0,1,.44-.84,1.51,1.51,0,0,1,1.14-.34c.31,0,.69.14.89-.07s.07-.66.07-1v-4.35c0-1.45.47-1.79,1.58-1.79h.75c.17,0,.25,0,.23.24v18c0,.35-.08.48-.4.44a5.08,5.08,0,0,0-.78,0,1.19,1.19,0,0,1-1-.4,1.57,1.57,0,0,1-.38-1.11v-5.34c0-.27-.07-.37-.32-.34h-.9a1.32,1.32,0,0,1-1.26-1,.52.52,0,0,0-.06-.13Z"/></clipPath><clipPath id="clip-path-2" transform="translate(-108.4 -199.77)"><rect class="cls-1" width="378.54" height="612.93"/></clipPath><clipPath id="clip-path-3" transform="translate(-108.4 -199.77)"><path class="cls-1" d="M118.63,214.54V204.27c0-.85.34-1.45,1-1.53a14.38,14.38,0,0,1,3.59,0,1.24,1.24,0,0,1,1,1.4V212c0,.47,0,.47.5.47h10.46c.35,0,.47-.09.46-.45v-7.75a1.34,1.34,0,0,1,.38-1.23,1.45,1.45,0,0,1,1.23-.42h2.53a1.36,1.36,0,0,1,1,.37,1.32,1.32,0,0,1,.44,1v20.78a3.32,3.32,0,0,1,0,.63,1.26,1.26,0,0,1-1.27,1h-3a1.39,1.39,0,0,1-1-.42,1.31,1.31,0,0,1-.37-1v-7.85c0-.48,0-.48-.5-.48h-10.5c-.32,0-.43.06-.43.4v7.79a1.38,1.38,0,0,1-.39,1.2,1.44,1.44,0,0,1-1.21.41h-2.37A1.47,1.47,0,0,1,119,226a1.4,1.4,0,0,1-.4-1.21Z"/></clipPath><clipPath id="clip-path-5" transform="translate(-108.4 -199.77)"><path class="cls-1" d="M142.52,214.28v-9.52c0-.35.11-.48.5-.44a8.16,8.16,0,0,0,1,0,1.86,1.86,0,0,1,1.46.46,1.44,1.44,0,0,1,.48,1.32v5.35c0,.65,0,.58.65.58h1.07a1.56,1.56,0,0,1,1.59,1.5v1.66a1.53,1.53,0,0,1-1.5,1.36,12.68,12.68,0,0,1-1.51,0c-.34,0-.45.06-.43.38v5.5a1.56,1.56,0,0,1-1.34,1.7,9.43,9.43,0,0,1-1.84,0c-.27,0-.18-.19-.18-.31v-2.41Z"/></clipPath></defs><title>fysiotherapie_kleur</title><g id="Laag_2" data-name="Laag 2"><g id="Laag_1-2" data-name="Laag 1"><g class="cls-2"><g class="cls-3"><rect class="cls-4" y="2.27" width="10.78" height="24.4"/></g></g><g class="cls-5"><g class="cls-3"><rect class="cls-4" x="7.38" width="28.38" height="29.51"/></g></g><g class="cls-6"><g class="cls-3"><rect class="cls-4" x="31.21" y="1.7" width="12.49" height="25.54"/></g></g></g></g></svg>