<svg xmlns="http://www.w3.org/2000/svg" xmlns:xlink="http://www.w3.org/1999/xlink" viewBox="0 0 54.48 39.16"><defs><style>.cls-1{fill:none;}.cls-2{clip-path:url(#clip-path);}.cls-3{clip-path:url(#clip-path-2);}.cls-4{fill:#f7a609;}.cls-5{clip-path:url(#clip-path-3);}</style><clipPath id="clip-path" transform="translate(-102.72 -262.77)"><path class="cls-1" d="M154.32,280.18c-.59,2.77-1.66,5.38-4,7a4.81,4.81,0,0,0-2.13,5c.14,1.43,0,1.45-1.26.71a1,1,0,0,1-.2-.11c-2.08-1.62-4.39-1.82-7-1.67a14.7,14.7,0,0,1-13.15-5.76,10.3,10.3,0,0,1,.72-13.74c6.13-6.62,18.15-6.53,24.22.15a12.86,12.86,0,0,1,2.86,6Z"/></clipPath><clipPath id="clip-path-2" transform="translate(-102.72 -262.77)"><rect class="cls-1" width="378.54" height="612.93"/></clipPath><clipPath id="clip-path-3" transform="translate(-102.72 -262.77)"><path class="cls-1" d="M129.09,266.19c-.69.47-1.41.92-2.07,1.44-8.42,6.48-7.67,17.65,1.54,23.18a16.86,16.86,0,0,0,3.11,1.51c1.07.37,2.15.69,3.4,1.08a19.55,19.55,0,0,1-6.21,2.17,21.93,21.93,0,0,1-8.39,0,2.07,2.07,0,0,0-1.53.31c-1.87,1.05-3.76,2.08-5.81,3.21V293.9a1.62,1.62,0,0,0-.84-1.57,14.15,14.15,0,0,1-6.55-9.56,12.6,12.6,0,0,1,4.59-12c5.31-4.75,11.67-5.91,18.53-4.82C129,266,129,266.08,129.09,266.19Z"/></clipPath></defs><title>logopedist_kleur</title><g id="Laag_2" data-name="Laag 2"><g id="Laag_1-2" data-name="Laag 1"><g class="cls-2"><g class="cls-3"><rect class="cls-4" x="18.73" y="1.14" width="35.75" height="32.35"/></g></g><g class="cls-5"><g class="cls-3"><rect class="cls-4" width="35.19" height="39.16"/></g></g></g></g></svg>