<svg xmlns="http://www.w3.org/2000/svg" xmlns:xlink="http://www.w3.org/1999/xlink" viewBox="0 0 48.81 48.81"><defs><style>.cls-1{fill:none;}.cls-2{clip-path:url(#clip-path);}.cls-3{clip-path:url(#clip-path-2);}.cls-4{fill:#a4b4bc;}.cls-5{clip-path:url(#clip-path-3);}</style><clipPath id="clip-path" transform="translate(-105.56 -404.65)"><path class="cls-1" d="M115.33,422.83l.9-.51a15.28,15.28,0,0,1,16,.83c.47.33.65.27.63-.33s0-1.4,0-2.09-.17-1-.94-1H115.55c-.63,0-.79.2-.66.78S115.18,422,115.33,422.83Zm8.22,24.7a12.06,12.06,0,1,0-10.82-5.91A12.09,12.09,0,0,0,123.55,447.53Zm-11.18-40a2.71,2.71,0,0,1,.66,1.42c.39,2.62.87,5.21,1.23,7.83.1.74.36.93,1.08.93h19.53a4.31,4.31,0,0,1,.88,0,1,1,0,0,1,.94,1.07.89.89,0,0,1-.93,1c-.6,0-.78.35-.74.89a9.2,9.2,0,0,1,0,1.05c-.17,2.29-.09,4.5,1.67,6.29a3,3,0,0,1,.58,1.1c.5,1.28.95,2.44,2.54,3,1.23.4,1.65,1.76,1.86,3,.36,2.3.75,4.59,1.09,6.89.08.5.19.69.75.58a3.92,3.92,0,0,1,4.38,1.85.86.86,0,0,0,.86.44h1.73a1,1,0,0,1,.76.26,1,1,0,0,1,.29.74c0,.65-.36,1.15-1,1.08-1.46-.17-2.15.35-2.77,1.73a3.85,3.85,0,0,1-5.09,1.57,3.89,3.89,0,0,1-2.18-4.89,6,6,0,0,0,.12-3.17c-.37-2.29-.75-4.58-1.12-6.88a2,2,0,0,0-.87-1.51,14.87,14.87,0,0,1-.27,4.89,15.31,15.31,0,0,1-12.93,11.71,15.12,15.12,0,0,1-16.88-12.75,14.46,14.46,0,0,1,4.09-12.54,1.75,1.75,0,0,0,.54-1.76c-.82-4.82-1.57-9.55-2.33-14.33a1.31,1.31,0,0,1,.71-1.5Z"/></clipPath><clipPath id="clip-path-2" transform="translate(-105.56 -404.65)"><rect class="cls-1" width="378.54" height="612.93"/></clipPath><clipPath id="clip-path-3" transform="translate(-105.56 -404.65)"><path class="cls-1" d="M123.08,425.65a9.65,9.65,0,1,1-9.57,9.73,9.58,9.58,0,0,1,9.57-9.73Z"/></clipPath></defs><title>revalidatie_kleur</title><g id="Laag_2" data-name="Laag 2"><g id="Laag_1-2" data-name="Laag 1"><g class="cls-2"><g class="cls-3"><rect class="cls-4" width="48.81" height="48.81"/></g></g><g class="cls-5"><g class="cls-3"><rect class="cls-4" x="5.11" y="18.16" width="24.97" height="24.97"/></g></g></g></g></svg>