<svg xmlns="http://www.w3.org/2000/svg" xmlns:xlink="http://www.w3.org/1999/xlink" viewBox="0 0 39.16 39.16"><defs><style>.cls-1{fill:none;}.cls-2{clip-path:url(#clip-path);}.cls-3{clip-path:url(#clip-path-2);}.cls-4{fill:#e73938;}</style><clipPath id="clip-path" transform="translate(-110.67 -535.18)"><path class="cls-1" d="M120.16,549.17h4.09c.36,0,.46-.12.46-.46V540.9a2.64,2.64,0,0,1,1.51-2.6,2.5,2.5,0,0,1,1.26-.28H133a2.65,2.65,0,0,1,2,.77,2.59,2.59,0,0,1,.77,2v7.89c0,.37,0,.48.46.48H144a2.72,2.72,0,0,1,2.15.77,2.66,2.66,0,0,1,.79,2.13v5.38a2.69,2.69,0,0,1-2.89,2.88h-7.94c-.32,0-.42.08-.42.42v7.76a2.77,2.77,0,0,1-3,3h-5.13a2.73,2.73,0,0,1-3-3v-7.68c0-.4,0-.53-.5-.53h-7.71a2.72,2.72,0,0,1-2.18-.8,2.68,2.68,0,0,1-.76-2.18v-5.24a2.74,2.74,0,0,1,.8-2.15,2.79,2.79,0,0,1,2.16-.81C117.69,549.21,118.93,549.17,120.16,549.17Z"/></clipPath><clipPath id="clip-path-2" transform="translate(-110.67 -535.18)"><rect class="cls-1" width="378.54" height="612.93"/></clipPath></defs><title>Middel 19</title><g id="Laag_2" data-name="Laag 2"><g id="Laag_1-2" data-name="Laag 1"><g class="cls-2"><g class="cls-3"><rect class="cls-4" width="39.16" height="39.16"/></g></g></g></g></svg>