<svg xmlns="http://www.w3.org/2000/svg" xmlns:xlink="http://www.w3.org/1999/xlink" viewBox="0 0 38.02 43.13"><defs><style>.cls-1{fill:none;}.cls-2{clip-path:url(#clip-path);}.cls-3{clip-path:url(#clip-path-2);}.cls-4{fill:#77c5b8;}.cls-5{clip-path:url(#clip-path-3);}</style><clipPath id="clip-path" transform="translate(-111.24 -473.89)"><path class="cls-1" d="M139.06,476.72a52.2,52.2,0,0,1,6.79,6.25c.92.91.69,2.19-.41,3.33l-11.55,12c-2.55,2.64-5,5.34-7.66,7.9-.83.81-.66,2-1.66,2.75s-1.84,1-2.62.25a1.56,1.56,0,0,1,.27-2.49,26.52,26.52,0,0,0,5.28-4.64c1.83-1.83,3.55-3.76,5.4-5.57.7-.68.58-1.05-.08-1.65-1.48-1.34-2.9-2.74-4.34-4.14-.5-.48-1-1-.36-1.7s1.2-.24,1.72.25c1.53,1.48,3.07,2.95,4.58,4.46.45.45.72.51,1.19,0q3-3.21,6-6.34c.49-.5.51-.8,0-1.3-1.51-1.38-2.94-2.83-4.43-4.24-2.11-2-2-3.51.33-5.11Z"/></clipPath><clipPath id="clip-path-2" transform="translate(-111.24 -473.89)"><rect class="cls-1" width="378.54" height="612.93"/></clipPath><clipPath id="clip-path-3" transform="translate(-111.24 -473.89)"><path class="cls-1" d="M128.83,482.26a4.12,4.12,0,0,1-.43,1.54c-3.05,8.53-6.06,17.06-9.15,25.55-.44,1.21.2,2.51-.56,3.68-.35.58-.73,1.15-1.46,1.15a1.51,1.51,0,0,1-1.43-.8c-.42-.78,0-2.93.84-3.24.5-.19.55-.53.68-.92,1.37-3.8,2.68-7.62,4.11-11.41.31-.83.07-1.05-.65-1.31-1.88-.66-3.73-1.43-5.6-2.13-.66-.26-1.34-.54-1-1.36s1-.73,1.72-.46c1.87.71,3.76,1.37,5.61,2.12.7.29,1,.14,1.22-.59.93-2.71,1.89-5.42,2.9-8.12.26-.68.1-.92-.53-1.16-2.15-.77-4.3-1.55-6.43-2.39a2.55,2.55,0,0,1-1.7-2.76,2.52,2.52,0,0,1,2-2.29,2.31,2.31,0,0,1,1.55.15c2.3.77,4.59,1.69,6.88,2.55A2.22,2.22,0,0,1,128.83,482.26Z"/></clipPath></defs><title>uitleen_kleur</title><g id="Laag_2" data-name="Laag 2"><g id="Laag_1-2" data-name="Laag 1"><g class="cls-2"><g class="cls-3"><rect class="cls-4" x="7.38" width="30.65" height="38.59"/></g></g><g class="cls-5"><g class="cls-3"><rect class="cls-4" y="0.57" width="20.43" height="42.56"/></g></g></g></g></svg>