<svg xmlns="http://www.w3.org/2000/svg" viewBox="0 0 26.07 41.57"><defs><style>.cls-1{fill:#76c5b8;}</style></defs><title>locateblue</title><g id="Laag_2" data-name="Laag 2"><g id="Laag_1-2" data-name="Laag 1"><g id="nlUxkn.tif"><path class="cls-1" d="M13,41.57A53.5,53.5,0,0,1,8.49,35,65.37,65.37,0,0,1,1,19.35C0,15.82-.53,12.26.76,8.67A13,13,0,0,1,25.69,9.88,15.74,15.74,0,0,1,25,18.76,82.26,82.26,0,0,1,17.4,34.89c-1.31,2.26-2.72,4.46-4.08,6.68Zm6.1-28.21a6,6,0,1,0-6,6A6.05,6.05,0,0,0,19.05,13.36Z"/></g></g></g></svg>
