<svg xmlns="http://www.w3.org/2000/svg" viewBox="0 0 22.21 29.12"><defs><style>.cls-1{opacity:0;}.cls-2{fill:#fff;}</style></defs><title>all</title><g id="Laag_2" data-name="Laag 2"><g id="Laag_1-2" data-name="Laag 1"><g id="Laag_2-2" data-name="Laag 2"><g id="Laag_1-2-2" data-name="Laag 1-2"><g id="MWsUID.tif"><g class="cls-1"><path class="cls-2" d="M0,11.43v-.9a.6.6,0,0,0,0-.19,10.31,10.31,0,0,1,1.65-5A10.92,10.92,0,0,1,10.31,0a10.6,10.6,0,0,1,4.76.69,11.15,11.15,0,0,1,7.08,11.51,10.68,10.68,0,0,1-2.24,5.61c-2.47,3.19-5,6.37-7.45,9.55-.44.58-.91,1.14-1.32,1.72h0L11,29,2.45,18.07a11,11,0,0,1-2.3-5.15C.07,12.41.06,11.92,0,11.43Zm11.1,7.38a8,8,0,1,0-.19,0Z"/><path class="cls-2" d="M17.08,11.16a6,6,0,1,1-6-6A6,6,0,0,1,17.08,11.16Zm-2-1.11c0-.08-.06-.11-.1-.15-.31-.31-.63-.62-.93-.94-.12-.11-.18-.11-.3,0l-3.38,3.45c-.1.1-.17.11-.27,0l-1.7-1.76c-.09-.09-.14-.11-.25,0-.31.33-.63.65-1,1-.1.1-.1.16,0,.25,1,1,2,2,2.92,2.93.1.1.16.08.25,0L15,10.19Z"/></g><path class="cls-2" d="M0,11.43v-.9a.6.6,0,0,0,0-.19,10.31,10.31,0,0,1,1.65-5A10.92,10.92,0,0,1,10.31,0a10.6,10.6,0,0,1,4.76.69,11.15,11.15,0,0,1,7.08,11.51,10.68,10.68,0,0,1-2.24,5.61c-2.47,3.19-5,6.37-7.45,9.55-.44.58-.91,1.14-1.32,1.72h0L11,29,2.45,18.07a11,11,0,0,1-2.3-5.15C.07,12.41.06,11.92,0,11.43Zm11.1,7.38a8,8,0,1,0-.19,0Z"/><path class="cls-2" d="M17.08,11.16a6,6,0,1,1-6-6A6,6,0,0,1,17.08,11.16Zm-2-1.11c0-.08-.06-.11-.1-.15-.31-.31-.63-.62-.93-.94-.12-.11-.18-.11-.3,0l-3.38,3.45c-.1.1-.17.11-.27,0l-1.7-1.76c-.09-.09-.14-.11-.25,0-.31.33-.63.65-1,1-.1.1-.1.16,0,.25,1,1,2,2,2.92,2.93.1.1.16.08.25,0L15,10.19Z"/></g></g></g></g></g></svg>