<svg xmlns="http://www.w3.org/2000/svg" viewBox="0 0 23 29.12"><defs><style>.cls-1{fill:#999999;}</style></defs><title>dietist</title><g id="Laag_2" data-name="Laag 2"><g id="Laag_1-2" data-name="Laag 1"><g id="Laag_2-2" data-name="Laag 2"><g id="Laag_1-2-2" data-name="Laag 1-2"><g id="CnDnD7.tif"><path class="cls-1" d="M14.61,29.12H13.54a8.33,8.33,0,0,1-1.7-.44.76.76,0,0,0-.69,0,5.35,5.35,0,0,1-1.67.39,5.91,5.91,0,0,1-4.09-1.34,11,11,0,0,1-2.81-3.31A18.78,18.78,0,0,1,.4,18.88a13.3,13.3,0,0,1-.31-4.79A7.62,7.62,0,0,1,2.47,9.4,6.61,6.61,0,0,1,5.84,7.7a8,8,0,0,1,4.7.62c.16.06.23,0,.29-.12.35-.94.72-1.77,1.11-2.64a31.36,31.36,0,0,1,2-3.84.75.75,0,0,1,1-.32h0l1.88.89c.32.15.36.37.1.61a2.11,2.11,0,0,1-.23.19c-.57.45-1.14.94-1.66,1.41a18.67,18.67,0,0,0-2.58,3.23,3,3,0,0,0-.33.72l.28-.11a9.28,9.28,0,0,1,3.89-.83,6.31,6.31,0,0,1,5.34,3A8.5,8.5,0,0,1,23,14.43,13.49,13.49,0,0,1,22.77,18,19.72,19.72,0,0,1,21,23.58a12.85,12.85,0,0,1-2.58,3.66A6.74,6.74,0,0,1,15.31,29,3.4,3.4,0,0,0,14.61,29.12Z"/><path class="cls-1" d="M10.48,6.38A5.71,5.71,0,0,1,7,5.14,4.7,4.7,0,0,1,5.67,3.35,6.31,6.31,0,0,1,5.16.78.72.72,0,0,1,5.8,0h.14a5.73,5.73,0,0,1,4,1.43,5.35,5.35,0,0,1,1.6,3.33,5.47,5.47,0,0,1,0,.81.71.71,0,0,1-.6.81h-.41Z"/></g></g></g></g></g></svg>