<svg xmlns="http://www.w3.org/2000/svg" viewBox="0 0 22.85 29.12"><defs><style>.cls-1{fill:#999999;}</style></defs><title>ergotherapie</title><g id="Laag_2" data-name="Laag 2"><g id="Laag_1-2" data-name="Laag 1"><g id="Laag_2-2" data-name="Laag 2"><g id="Laag_1-2-2" data-name="Laag 1-2"><g id="S13GmD.tif"><path class="cls-1" d="M0,17.48V16.7c.9-1.33,1.7-1.42,2.88-.24L5.6,19.17a1.63,1.63,0,0,0,.16-1.06V3.25A1.27,1.27,0,0,1,6.93,1.89H7A1.32,1.32,0,0,1,8.54,3a.77.77,0,0,1,0,.15,5.21,5.21,0,0,1,.06,1V11c.05.57.3,1,.9,1a1,1,0,0,0,1-1.11V2.07a2.18,2.18,0,0,1,1-2.07h1a2.09,2.09,0,0,1,1,2v9.11a.9.9,0,0,0,.82.91.89.89,0,0,0,1-.76.09.09,0,0,0,0-.05,4.61,4.61,0,0,0,0-.91V3.73c0-1.2.52-1.81,1.41-1.81s1.4.68,1.4,1.81V10.9c0,.57.28,1.06.91,1.06a.89.89,0,0,0,1-.8.82.82,0,0,0,0-.27V5.56c0-1.11.53-1.81,1.35-1.81s1.5.67,1.52,1.86V16.72c0,.21.1.45-.19.68-.56-.62-1.14-1.21-1.75-1.77a7.15,7.15,0,0,0-9.41-.17c-3.13,2.87-2.45,7.75,1.3,9.32A4.39,4.39,0,0,0,19,20.26,3,3,0,0,0,16,17.55,2.7,2.7,0,0,0,13.33,20c-.09.66,0,1.32.78,1.42s1.05-.38,1.11-1.07c0-.49.2-1,.77-.9a1.09,1.09,0,0,1,1.19,1v0A2.49,2.49,0,0,1,15,23.27l-.24,0a3.31,3.31,0,0,1-3.25-3.37,3.84,3.84,0,0,1,.14-.89,4.79,4.79,0,0,1,5.67-3.22,6.05,6.05,0,0,1,4.88,5.43,6.85,6.85,0,0,1-3.94,7A8.86,8.86,0,0,1,7.62,25.84c-.5-.59-1-1.18-1.5-1.81C4.26,21.7,2,19.73,0,17.48Z"/></g></g></g></g></g></svg>