<svg xmlns="http://www.w3.org/2000/svg" viewBox="0 0 37.64 24.65"><defs><style>.cls-1{fill:#999999;}</style></defs><title>fysiotherapeut</title><g id="Laag_2" data-name="Laag 2"><g id="Laag_1-2" data-name="Laag 1"><g id="Laag_2-2" data-name="Laag 2"><g id="Laag_1-2-2" data-name="Laag 1-2"><g id="uBah4r.tif"><path class="cls-1" d="M0,11.39a2.47,2.47,0,0,1,.5-.84,1.85,1.85,0,0,1,1.29-.35c.35,0,.78.14,1-.06s.07-.67.07-1V4.75c0-1.46.53-1.81,1.78-1.81H5.5c.2,0,.29,0,.26.25V21.33c0,.34-.09.47-.45.43a6.46,6.46,0,0,0-.88,0,1.42,1.42,0,0,1-1.55-1.29,1.69,1.69,0,0,1,0-.23V14.88c0-.27-.07-.37-.36-.35h-1a1.46,1.46,0,0,1-1.42-1A.57.57,0,0,0,0,13.37Z"/><path class="cls-1" d="M7.26,12.34V1.72c0-.88.35-1.5,1.06-1.59A14.94,14.94,0,0,1,12,.13a1.3,1.3,0,0,1,1,1.46V9.71c0,.49,0,.49.5.49H24.18c.37,0,.48-.09.47-.46v-8A1.46,1.46,0,0,1,25.82,0a1.29,1.29,0,0,1,.48,0h2.58a1.41,1.41,0,0,1,1.48,1.32V22.9a3.64,3.64,0,0,1,0,.66,1.29,1.29,0,0,1-1.29,1.07h-3a1.39,1.39,0,0,1-1.44-1.34,1,1,0,0,1,0-.17V15c0-.49,0-.49-.5-.49H13.41c-.34,0-.44.06-.44.41V23a1.45,1.45,0,0,1-1.64,1.66H8.92a1.46,1.46,0,0,1-1.66-1.25,1.55,1.55,0,0,1,0-.43Z"/><path class="cls-1" d="M31.87,12.33v-9c0-.33.09-.45.42-.41a6,6,0,0,0,.85,0,1.49,1.49,0,0,1,1.67,1.69V9.65c0,.62,0,.55.55.55h.92a1.4,1.4,0,0,1,1.36,1.42v1.57a1.36,1.36,0,0,1-1.29,1.29,6.84,6.84,0,0,1-1.28,0c-.3,0-.39.07-.38.36v5.22a1.44,1.44,0,0,1-1.15,1.61,6.87,6.87,0,0,1-1.57,0c-.23,0-.15-.18-.15-.29V19.1Z"/></g></g></g></g></g></svg>