<svg xmlns="http://www.w3.org/2000/svg" viewBox="0 0 25.85 16.93"><defs><style>.cls-1{fill:#999999;}</style></defs><title>fysiotherapie</title><g id="Laag_2" data-name="Laag 2"><g id="Laag_1-2" data-name="Laag 1"><g id="Laag_2-2" data-name="Laag 2"><g id="Laag_1-2-2" data-name="Laag 1-2"><g id="uBah4r.tif"><path class="cls-1" d="M0,7.82a1.58,1.58,0,0,1,.35-.58A1.25,1.25,0,0,1,1.23,7c.24,0,.53.09.69,0S2,6.5,2,6.26v-3C2,2.26,2.34,2,3.2,2h.58C3.91,2,4,2,4,2.19V14.65c0,.23-.06.32-.31.3a3,3,0,0,0-.6,0A1,1,0,0,1,2,14.06a.86.86,0,0,1,0-.16V10.22C2,10,1.92,10,1.73,10H1a1,1,0,0,1-1-.71.41.41,0,0,0,0-.09Z"/><path class="cls-1" d="M5,8.47V1.18c0-.6.24-1,.73-1.09a9.59,9.59,0,0,1,2.51,0,.89.89,0,0,1,.72,1V6.67c0,.34,0,.34.35.34h7.32c.25,0,.33-.07.32-.32V1.18A1,1,0,0,1,17.73,0a.92.92,0,0,1,.33,0h1.77a1,1,0,0,1,1,.91V15.73a3.38,3.38,0,0,1,0,.45.88.88,0,0,1-.89.73H17.89a1,1,0,0,1-1-.91V10.3c0-.34,0-.34-.34-.34H9.21c-.23,0-.3,0-.3.29v5.53a1,1,0,0,1-.84,1.14H6.13A1,1,0,0,1,5,16.07a1.5,1.5,0,0,1,0-.3Z"/><path class="cls-1" d="M21.89,8.47V2.27c0-.23.06-.31.29-.28a5.6,5.6,0,0,0,.58,0,1,1,0,0,1,1.15.87,1,1,0,0,1,0,.29V6.62c0,.43,0,.39.38.39h.63a1,1,0,0,1,.94,1V9.06a.92.92,0,0,1-.88.88,4.41,4.41,0,0,1-.89,0c-.2,0-.26.05-.26.25v3.59a1,1,0,0,1-.78,1.1,4.88,4.88,0,0,1-1.08,0c-.16,0-.11-.12-.11-.2V13.11Z"/></g></g></g></g></g></svg>