<svg xmlns="http://www.w3.org/2000/svg" viewBox="0 0 42.14 29.12"><defs><style>.cls-1{fill:#999999;}</style></defs><title>logopedist</title><g id="Laag_2" data-name="Laag 2"><g id="Laag_1-2" data-name="Laag 1"><g id="Laag_2-2" data-name="Laag 2"><g id="Laag_1-2-2" data-name="Laag 1-2"><g id="QRexix.tif"><path class="cls-1" d="M42.09,12.42c-.51,2.38-1.44,4.61-3.47,6a4.11,4.11,0,0,0-1.86,4.31c.12,1.23,0,1.24-1.09.61l-.17-.09c-1.82-1.4-3.82-1.57-6.1-1.44A12.85,12.85,0,0,1,18,16.89,8.75,8.75,0,0,1,18.6,5.1c5.32-5.67,15.78-5.6,21,.13a11,11,0,0,1,2.49,5.14Z"/><path class="cls-1" d="M20.29.51c-.59.41-1.21.8-1.78,1.25-7.26,5.64-6.62,15.35,1.33,20.16a14.82,14.82,0,0,0,2.68,1.32c.92.32,1.85.6,2.93.94a17.16,17.16,0,0,1-5.35,1.89,19.16,19.16,0,0,1-7.24,0,1.76,1.76,0,0,0-1.32.27c-1.61.91-3.24,1.8-5,2.78V24.61a1.42,1.42,0,0,0-.72-1.36A12.32,12.32,0,0,1,.15,14.93a11,11,0,0,1,4-10.41C8.69.39,14.18-.62,20.1.33,20.17.34,20.2.41,20.29.51Z"/></g></g></g></g></g></svg>