<svg xmlns="http://www.w3.org/2000/svg" viewBox="0 0 26.29 29.12"><defs><style>.cls-1{fill:#999999;}</style></defs><title>oefentherapie</title><g id="Laag_2" data-name="Laag 2"><g id="Laag_1-2" data-name="Laag 1"><g id="Laag_2-2" data-name="Laag 2"><g id="Laag_1-2-2" data-name="Laag 1-2"><g id="gvPC41.tif"><path class="cls-1" d="M9.48,0h7.37a2.77,2.77,0,0,1,.09,1.4,2.83,2.83,0,0,0,1.78,3.36c1.43.66,2.89,1.26,4.35,1.85a4.62,4.62,0,0,1,3.06,4.28c.49,5.82-.26,11.59-.57,17.38a.69.69,0,0,1-.65.76H22.07c-.26,0-.51,0-.59-.34-.33-1.36-.78-2.66-.06-4.11a23.89,23.89,0,0,0,2.28-9.51c0-.48.12-1.08-.57-1.11s-.65.55-.69,1a22.85,22.85,0,0,1-1.86,8.35c-.75,1.64-1.22,3.26-.48,5,.24.55,0,.7-.58.68-1.51,0-3-.06-4.54,0-.94.05-1.25-.16-1.24-1.19.06-6.09,0-12.19,0-18.28,0-.55.21-1.38-.62-1.38s-.58.89-.58,1.37V28.05c0,.82-.24,1-1,1C10,29,8.41,29,6.86,29.05c-.78,0-.88-.27-.64-.89a5.33,5.33,0,0,0-.32-4.38,20.53,20.53,0,0,1-1.62-5.05,34.19,34.19,0,0,1-.45-4c0-.41-.18-.79-.67-.77s-.6.42-.6.83a1.57,1.57,0,0,0,0,.48,25.89,25.89,0,0,0,2.47,9.89,4.28,4.28,0,0,1-.39,3.71c-.26.56-1.44.13-2.19.19H1.61c-.6,0-.88-.26-.88-.88C.66,27,.53,25.71.47,24.5.23,20-.25,15.5.16,11A4.73,4.73,0,0,1,3.32,6.54C4.76,6,6.19,5.37,7.59,4.77A2.79,2.79,0,0,0,9.36,1.42,2.64,2.64,0,0,1,9.48,0Z"/></g></g></g></g></g></svg>