<svg xmlns="http://www.w3.org/2000/svg" viewBox="0 0 28.97 29.12"><defs><style>.cls-1{fill:#999999;}</style></defs><title>revalidatie</title><g id="Laag_2" data-name="Laag 2"><g id="Laag_1-2" data-name="Laag 1"><g id="Laag_2-2" data-name="Laag 2"><g id="Laag_1-2-2" data-name="Laag 1-2"><g id="p1xZtx.tif"><path class="cls-1" d="M2.67,0a1.81,1.81,0,0,1,.44,1c.27,1.76.59,3.52.83,5.28.06.51.24.63.72.63H17.78a2.91,2.91,0,0,1,.59,0A.7.7,0,0,1,19,7.6a.6.6,0,0,1-.63.67c-.41,0-.52.24-.5.61s0,.47,0,.71c-.11,1.54-.06,3,1.13,4.24a2.08,2.08,0,0,1,.38.74c.34.87.64,1.65,1.71,2,.83.27,1.11,1.19,1.25,2.06.24,1.55.5,3.09.73,4.65.05.33.13.47.51.39a2.61,2.61,0,0,1,2.94,1.25.58.58,0,0,0,.57.3h1.17a.63.63,0,0,1,.7.58v.09c0,.44-.24.78-.64.73-1-.12-1.45.24-1.86,1.17a2.59,2.59,0,0,1-3.42,1.06,2.63,2.63,0,0,1-1.47-3.3,4,4,0,0,0,.08-2.14c-.24-1.55-.5-3.1-.75-4.65a1.32,1.32,0,0,0-.58-1,10,10,0,0,1-.19,3.31A10.31,10.31,0,0,1,11.46,29,10.18,10.18,0,0,1,.12,20.34a9.81,9.81,0,0,1,2.75-8.47,1.18,1.18,0,0,0,.37-1.19C2.68,7.43,2.18,4.24,1.67,1a.88.88,0,0,1,.48-1Zm7.51,27a8.14,8.14,0,1,0-.52,0A4.51,4.51,0,0,0,10.18,27ZM4.66,10.36l.6-.34A10.15,10.15,0,0,1,16,10.58c.32.22.44.18.43-.23s0-.94,0-1.41-.11-.67-.63-.66H4.8c-.42,0-.52.13-.44.53S4.56,9.8,4.66,10.36Z"/><path class="cls-1" d="M10.17,12.27a6.55,6.55,0,1,1-.11,0Z"/></g></g></g></g></g></svg>