<svg xmlns="http://www.w3.org/2000/svg" viewBox="0 0 29.06 29.12"><defs><style>.cls-1{fill:#999999;}</style></defs><title>ziekenhuizen</title><g id="Laag_2" data-name="Laag 2"><g id="Laag_1-2" data-name="Laag 1"><g id="Laag_2-2" data-name="Laag 2"><g id="Laag_1-2-2" data-name="Laag 1-2"><g id="yNcTw9.tif"><path class="cls-1" d="M5.78,9.7H9.33c.31,0,.39-.1.39-.4V2.51A2.35,2.35,0,0,1,12.13,0h4.79a2.3,2.3,0,0,1,2.42,2.17,1.13,1.13,0,0,1,0,.26V9.29c0,.32,0,.42.4.42H26.5a2.34,2.34,0,0,1,2.55,2.11,2.8,2.8,0,0,1,0,.41v4.68a2.34,2.34,0,0,1-2.15,2.51H19.65c-.28,0-.36.07-.36.37v6.75a2.4,2.4,0,0,1-2.23,2.57,2,2,0,0,1-.35,0H12.26A2.37,2.37,0,0,1,9.69,27a2.81,2.81,0,0,1,0-.41V19.87c0-.35,0-.46-.43-.46H2.56A2.36,2.36,0,0,1,0,17.27a3.53,3.53,0,0,1,0-.46V12.26A2.42,2.42,0,0,1,2.24,9.68h.34C3.63,9.74,4.71,9.7,5.78,9.7Z"/></g></g></g></g></g></svg>