<svg xmlns="http://www.w3.org/2000/svg" viewBox="0 0 25.34 29.12"><defs><style>.cls-1{fill:#999999;}</style></defs><title>zorguitleen</title><g id="Laag_2" data-name="Laag 2"><g id="Laag_1-2" data-name="Laag 1"><g id="Laag_2-2" data-name="Laag 2"><g id="Laag_1-2-2" data-name="Laag 1-2"><g id="Ry757B.tif"><path class="cls-1" d="M19.64,0A41.58,41.58,0,0,1,24.9,4.84c.71.71.54,1.7-.32,2.59q-4.45,4.65-8.95,9.3c-2,2.05-3.92,4.14-5.94,6.13-.64.62-.5,1.58-1.29,2.13s-1.42.79-2,.2a1.22,1.22,0,0,1,0-1.72,1.13,1.13,0,0,1,.27-.22,20.6,20.6,0,0,0,4.09-3.6c1.42-1.42,2.75-2.92,4.18-4.32.55-.53.46-.81-.06-1.27-1.15-1.05-2.25-2.14-3.36-3.22-.39-.37-.78-.78-.28-1.32s.93-.19,1.33.2C13.67,10.87,14.87,12,16,13.17c.35.35.56.4.92,0q2.33-2.49,4.68-4.91c.39-.39.4-.62,0-1C20.48,6.18,19.36,5.06,18.21,4c-1.63-1.52-1.55-2.72.26-4Z"/><path class="cls-1" d="M11.71,4.49a3.08,3.08,0,0,1-.34,1.19C9,12.26,6.56,18.84,4.11,25.4c-.35.93.15,1.93-.45,2.84-.28.44-.58.88-1.16.88a1.22,1.22,0,0,1-1.13-.61c-.33-.6,0-2.27.66-2.5.4-.15.44-.41.54-.71,1.09-2.93,2.13-5.88,3.27-8.81.24-.64,0-.81-.52-1-1.49-.51-3-1.1-4.44-1.64-.52-.2-1.06-.42-.82-1.06s.83-.56,1.36-.35c1.49.55,3,1.06,4.46,1.64.55.22.77.11,1-.45Q8,10.47,9.14,7.34c.21-.51.09-.71-.42-.89C7,5.86,5.32,5.26,3.62,4.61A2,2,0,0,1,2.28,2.48,2,2,0,0,1,3.82.71,1.92,1.92,0,0,1,5.05.82c1.83.6,3.65,1.31,5.46,2A1.71,1.71,0,0,1,11.71,4.49Z"/></g></g></g></g></g></svg>