<svg xmlns="http://www.w3.org/2000/svg" viewBox="0 0 67.48 74.23"><defs><style>.cls-1{fill:#f6a500;}.cls-2{fill:#fff;}</style></defs><title>beeldmerk_icon</title><g id="Laag_2" data-name="Laag 2"><g id="Laag_1-2" data-name="Laag 1"><path class="cls-1" d="M67.48,33.74A33.74,33.74,0,1,0,26.11,66.6l7.63,7.63,7.63-7.63A33.76,33.76,0,0,0,67.48,33.74Z"/><path class="cls-2" d="M15.51,36.29a.89.89,0,0,1-.89-.89v-8a.89.89,0,1,1,1.78,0v8A.89.89,0,0,1,15.51,36.29Z"/><path class="cls-2" d="M20.07,38.07a.89.89,0,0,1-.89-.89V22.71a.89.89,0,1,1,1.77,0V37.18A.88.88,0,0,1,20.07,38.07Z"/><path class="cls-2" d="M24.9,42.08a.89.89,0,0,1-.89-.89V19.36a.89.89,0,0,1,1.78,0V41.19A.89.89,0,0,1,24.9,42.08Z"/><path class="cls-2" d="M29.4,46.09a.89.89,0,0,1-.89-.89V18.25a.89.89,0,0,1,1.78,0v27A.89.89,0,0,1,29.4,46.09Z"/><path class="cls-2" d="M33.78,46.09a.89.89,0,0,1-.89-.89V17.81a.89.89,0,1,1,1.78,0V45.2A.89.89,0,0,1,33.78,46.09Z"/><path class="cls-2" d="M38.16,54.78a.89.89,0,0,1-.89-.89V17.81a.89.89,0,1,1,1.78,0V53.89A.89.89,0,0,1,38.16,54.78Z"/><path class="cls-2" d="M42.91,48.1a.89.89,0,0,1-.89-.89V21.15a.89.89,0,1,1,1.78,0V47.21A.89.89,0,0,1,42.91,48.1Z"/><path class="cls-2" d="M47.36,45.65a.89.89,0,0,1-.89-.89V24.49a.89.89,0,0,1,1.78,0V44.76A.89.89,0,0,1,47.36,45.65Z"/><path class="cls-2" d="M52,43a.89.89,0,0,1-.89-.89V29.83a.89.89,0,0,1,1.78,0V42.08A.89.89,0,0,1,52,43Z"/></g></g></svg>